Coordinates
version=1
nRows=24
nColumns=24
inDegrees=yes

Units are S.I. units (second, meters, Newtons, ...)
Angles are in degrees.

endheader
time	pelvis_tilt	pelvis_list	pelvis_rotation	pelvis_tx	pelvis_ty	pelvis_tz	hip_flexion_r	hip_adduction_r	hip_rotation_r	knee_angle_r	ankle_angle_r	subtalar_angle_r	mtp_angle_r	hip_flexion_l	hip_adduction_l	hip_rotation_l	knee_angle_l	ankle_angle_l	subtalar_angle_l	mtp_angle_l	lumbar_extension	lumbar_bending	lumbar_rotation
      3.42500000	     -1.64791058	     -1.63854225	     -9.20628190	     -0.77277943	      0.90724691	      0.25484436	    -11.30960879	      5.81267694	      4.98444660	    -23.56804301	     23.29282287	     -5.16668624	      0.00000000	     30.07046262	     -2.00292771	     -7.23735356	     -9.93216310	     10.94675557	    -11.00666170	      0.00000000	    -12.26227133	     -0.13263352	      2.91317448
      3.43000000	     -1.68889968	     -1.38686448	     -9.14087598	     -0.76420603	      0.90600855	      0.25473319	    -11.17450096	      5.37632755	      4.41414084	    -24.68683085	     23.00937140	     -4.31542581	      0.00000000	     30.34158164	     -1.65949880	     -7.27829978	    -10.92546162	     10.53880306	    -11.28255531	      0.00000000	    -12.10544928	     -0.45935218	      2.82163097
      3.43500000	     -1.73701847	     -1.08877006	     -9.06306322	     -0.75559990	      0.90482254	      0.25459907	    -10.96699315	      4.88595174	      3.80801085	    -25.90017622	     22.63481483	     -3.46913926	      0.00000000	     30.61929380	     -1.26515079	     -7.25522329	    -11.96109194	      9.97580093	    -11.62992599	      0.00000000	    -11.93070552	     -0.84530321	      2.71306825
      3.44000000	     -1.79334714	     -0.73984970	     -8.96884712	     -0.74697957	      0.90369272	      0.25443196	    -10.68020926	      4.33725823	      3.17239845	    -27.21644610	     22.16331357	     -2.62522836	      0.00000000	     30.91055636	     -0.81346108	     -7.16320276	    -13.03143394	      9.26198467	    -12.04937115	      0.00000000	    -11.73840594	     -1.28751105	      2.58659724
      3.44500000	     -1.85620743	     -0.37963174	     -8.85846296	     -0.73844436	      0.90262997	      0.25416633	    -10.30678451	      3.76157591	      2.49618983	    -28.64732700	     21.59655750	     -1.75959900	      0.00000000	     31.22284853	     -0.32979501	     -6.93447983	    -14.13628016	      8.37465062	    -12.64201929	      0.00000000	    -11.55860721	     -1.73466152	      2.45063859
      3.45000000	     -1.92893146	      0.07685192	     -8.73461130	     -0.72985032	      0.90165151	      0.25394247	     -9.85498609	      3.08935790	      1.82766797	    -30.16505318	     20.89496726	     -0.98699875	      0.00000000	     31.55714344	      0.23810258	     -6.76437492	    -15.26716048	      7.44107467	    -13.15635972	      0.00000000	    -11.34246675	     -2.30702476	      2.28711832
      3.45500000	     -2.01165151	      0.57874739	     -8.59350330	     -0.72129143	      0.90075622	      0.25368762	     -9.31833924	      2.36477672	      1.15942661	    -31.78238179	     20.05755386	     -0.26190194	      0.00000000	     31.92009895	      0.85684100	     -6.56053650	    -16.43004777	      6.45752859	    -13.70395212	      0.00000000	    -11.11639290	     -2.93277167	      2.10437296
      3.46000000	     -2.09998068	      1.12200005	     -8.44213294	     -0.71275403	      0.89993933	      0.25341793	     -8.70642334	      1.59066711	      0.50835901	    -33.49045224	     19.07782552	      0.39970164	      0.00000000	     32.30761871	      1.51820948	     -6.35057871	    -17.63106187	      5.48762609	    -14.26116680	      0.00000000	    -10.88527990	     -3.60970223	      1.90670685
      3.46500000	     -2.18946519	      1.69235593	     -8.28352491	     -0.70423479	      0.89920690	      0.25314948	     -8.02928925	      0.78256594	     -0.11410576	    -35.27872324	     17.93981842	      0.97287203	      0.00000000	     32.70894030	      2.20738818	     -6.14549264	    -18.86184623	      4.57086732	    -14.82140980	      0.00000000	    -10.65500706	     -4.32095126	      1.69974224
      3.47000000	     -2.27362054	      2.27889092	     -8.12035052	     -0.69573074	      0.89853423	      0.25288740	     -7.29999448	     -0.04715039	     -0.68928054	    -37.13784790	     16.65684942	      1.45887157	      0.00000000	     33.11636258	      2.91265640	     -5.95832451	    -20.12514517	      3.76235324	    -15.37086112	      0.00000000	    -10.43537073	     -5.05681003	      1.49151501
      3.47500000	     -2.33617064	      2.87936295	     -7.96360197	     -0.68721704	      0.89792417	      0.25265369	     -6.54425077	     -0.89434054	     -1.20149197	    -39.04934806	     15.23789872	      1.80222594	      0.00000000	     33.50420190	      3.62611715	     -5.81062037	    -21.41182999	      3.11467351	    -15.87451540	      0.00000000	    -10.24004721	     -5.81550425	      1.26606554
      3.48000000	     -2.39677461	      3.45449909	     -7.80622048	     -0.67872831	      0.89738310	      0.25239800	     -5.74210415	     -1.72567227	     -1.67490247	    -41.00481543	     13.66054747	      2.06437616	      0.00000000	     33.86952681	      4.32120888	     -5.67007455	    -22.67240464	      2.57662164	    -16.40025358	      0.00000000	    -10.05525094	     -6.54006929	      1.08198804
      3.48500000	     -2.43222063	      4.01135089	     -7.65338206	     -0.67021639	      0.89691070	      0.25216075	     -4.93370363	     -2.53694748	     -2.08069146	    -42.97529710	     11.95108405	      2.16928413	      0.00000000	     34.17856180	      4.99857372	     -5.57350032	    -23.90047024	      2.24121005	    -16.87325864	      0.00000000	     -9.90126432	     -7.24775717	      0.90207770
      3.49000000	     -2.36041020	      4.53692745	     -7.50694036	     -0.66166211	      0.89664842	      0.25203323	     -4.23284537	     -3.29842303	     -2.39660960	    -44.90243206	     10.08251701	      1.99099135	      0.00000000	     34.32881206	      5.64260464	     -5.54962118	    -25.08438602	      2.20490908	    -17.15552355	      0.00000000	     -9.87288309	     -7.94050361	      0.67935827
      3.49500000	     -2.42777993	      5.06996914	     -7.37180065	     -0.65323562	      0.89614317	      0.25168992	     -3.29500666	     -4.09914250	     -2.70801410	    -46.92864878	      8.30026207	      1.88591576	      0.00000000	     34.60298408	      6.30242039	     -5.50056620	    -26.20041869	      2.17883160	    -17.63555754	      0.00000000	     -9.69366279	     -8.59140911	      0.54679846
      3.50000000	     -2.40306601	      5.55363674	     -7.23431222	     -0.64478279	      0.89585517	      0.25144943	     -2.45947972	     -4.82007882	     -2.93959980	    -48.87752773	      6.39109822	      1.45938264	      0.00000000	     34.71499452	      6.91238289	     -5.52078687	    -27.24245717	      2.45262327	    -17.88480091	      0.00000000	     -9.62378231	     -9.20137218	      0.37270644
      3.50500000	     -2.27748009	      6.01682246	     -7.08205083	     -0.63630269	      0.89576875	      0.25117985	     -1.72947251	     -5.52270330	     -3.15921858	    -50.76417418	      4.46622084	      0.83144119	      0.00000000	     34.64450513	      7.53264261	     -5.54252877	    -28.17468707	      2.93935962	    -18.03398498	      0.00000000	     -9.67581323	     -9.78967468	      0.15578261
      3.51000000	     -2.30492667	      6.44433126	     -6.95928820	     -0.62798500	      0.89551178	      0.25090012	     -0.77236181	     -6.15745678	     -3.28303789	    -52.66780231	      2.58441568	      0.01308053	      0.00000000	     34.70523084	      8.07127318	     -5.64293965	    -29.05321529	      3.52709804	    -18.11989764	      0.00000000	     -9.55505542	    -10.30203700	      0.01199994
      3.51500000	     -2.16960859	      6.90709452	     -6.78717629	     -0.61956692	      0.89555559	      0.25047334	     -0.01115183	     -6.85767446	     -3.46283260	    -54.47762367	      0.81332832	     -0.93247839	      0.00000000	     34.49916241	      8.72021287	     -5.66455189	    -29.77877833	      4.22608732	    -18.16755154	      0.00000000	     -9.61943976	    -10.84536060	     -0.24927666
      3.52000000	     -2.16757748	      7.25542012	     -6.65902472	     -0.61140245	      0.89551049	      0.25022339	      0.94330000	     -7.36478767	     -3.50359145	    -56.26190090	     -0.92599194	     -2.19878620	      0.00000000	     34.40049194	      9.17929006	     -5.79630953	    -30.46815420	      5.08048223	    -18.05002483	      0.00000000	     -9.55633524	    -11.26032158	     -0.44039844
      3.52500000	     -2.09050148	      7.66069855	     -6.47947112	     -0.60323521	      0.89563201	      0.24977977	      1.81877576	     -7.96630182	     -3.61832269	    -57.98710314	     -2.43699703	     -3.53483273	      0.00000000	     34.16110585	      9.74598024	     -5.91094818	    -31.03206164	      5.90258860	    -17.95592189	      0.00000000	     -9.58635870	    -11.71349693	     -0.72007311
      3.53000000	     -2.05410707	      8.02167896	     -6.32075633	     -0.59512119	      0.89581330	      0.24937501	      2.74957048	     -8.48369428	     -3.64661693	    -59.64308549	     -3.76644738	     -5.05186639	      0.00000000	     33.89192533	     10.25598240	     -5.98583998	    -31.49667136	      6.83352350	    -17.75498515	      0.00000000	     -9.55952576	    -12.10532253	     -0.98661157
      3.53500000	     -2.01574029	      8.38585110	     -6.13847498	     -0.58710412	      0.89609388	      0.24889269	      3.69035889	     -9.00465033	     -3.68153163	    -61.24187953	     -4.84075912	     -6.66073374	      0.00000000	     33.57513086	     10.77927496	     -6.06789416	    -31.87508503	      7.73628005	    -17.52190545	      0.00000000	     -9.55037914	    -12.48433726	     -1.28331137
      3.54000000	     -1.97260854	      8.74206981	     -5.95062352	     -0.57919066	      0.89649575	      0.24838295	      4.63757145	     -9.50842111	     -3.69442583	    -62.77519167	     -5.64517627	     -8.35222897	      0.00000000	     33.20312291	     11.29876610	     -6.14490295	    -32.16004530	      8.59724550	    -17.28058517	      0.00000000	     -9.56091380	    -12.84369740	     -1.61250868
